<?xml version="1.0" encoding="utf-8"?>
<!-- Generator: Adobe Illustrator 26.5.0, SVG Export Plug-In . SVG Version: 6.00 Build 0)  -->
<svg version="1.1" id="Layer_1" xmlns="http://www.w3.org/2000/svg" xmlns:xlink="http://www.w3.org/1999/xlink" x="0px" y="0px"
	 viewBox="0 0 841.9 595.3" style="enable-background:new 0 0 841.9 595.3;" xml:space="preserve">
<style type="text/css">
	.st0{fill:url(#SVGID_1_);}
	.st1{fill:url(#SVGID_00000041260041862711535970000010792696737953105077_);}
	.st2{fill:url(#SVGID_00000132795920208629314660000012927843278658154664_);}
	.st3{fill:url(#SVGID_00000047749355949528447600000016397889729950922387_);}
	.st4{fill:url(#SVGID_00000027601185549981604250000003140752468625774774_);}
	.st5{fill:url(#SVGID_00000183963836485314259080000012192303300426724025_);}
	.st6{fill:url(#SVGID_00000011724210375542395920000017706966938768223668_);}
	.st7{fill:url(#SVGID_00000145746180970288519940000012058861881286419340_);}
	.st8{fill:url(#SVGID_00000127755734169115484220000010468907953341513916_);}
</style>
<g id="Layer_1-2">
	<g>
		
			<linearGradient id="SVGID_1_" gradientUnits="userSpaceOnUse" x1="419.5201" y1="101.2972" x2="419.5201" y2="497.7029" gradientTransform="matrix(1 0 0 -1 0 598)">
			<stop  offset="0" style="stop-color:#D1D3D4"/>
			<stop  offset="1" style="stop-color:#F1F2F2"/>
		</linearGradient>
		<path class="st0" d="M727.4,496.7c-0.9,0-1.9,0-2.9-0.1c-5.5-0.3-10.9-1.4-16-3c-5.1,1.7-10.4,2.7-15.9,3c-1,0.1-2,0.1-2.9,0.1
			s-1.9,0-2.8-0.1c-7.2-0.4-14-2-20.4-4.8c-8.5,3.2-17.7,4.8-26.8,4.8c-14.2,0-27.9-3.8-39.7-11.2c-10.4,7.3-22.5,11.1-35.2,11.1
			c-28,0-50.8-22.8-50.8-50.8v-33.1c-19.5,0-118.5,0-202.9,0c-12,0-23.5-4.2-32.6-11.8c-22.7,10.9-48.9,16.5-78,16.5
			c-43.8,0-80.6-12.7-109.3-37.8c-35.2-30.9-53-71.3-53-120.2c0-45.1,15-83.3,44.7-113.4c29.9-30.4,69.4-45.8,117.5-45.8
			c29.4,0,55.8,5.5,78.5,16.3c9.1-7.5,20.5-11.6,32.3-11.6h69.5c7,0,14,1.5,20.4,4.2c15-5.9,31.9-8.9,50.1-8.9
			c30.9,0,56.9,9.3,77.5,27.5c26.3-18.3,58.7-27.5,96.3-27.5s66.6,6.5,90.6,19.8c25.2,14,44.7,34.4,57.7,60.7
			c11.9,24,18,53.9,18,88.9v8.9c0,7.5-1.7,15-4.9,21.8c1.9,11.1-0.1,22.6-5.5,32.6c-1.6,3-3.4,6.1-5.2,9c6.6,4.4,12.1,10,16.5,17
			c8.7,13.6,11.2,29.9,7.2,45.8c-0.2,0.7-0.4,1.4-0.6,2.2l-14.2,47.1c-0.2,0.8-0.5,1.4-0.7,2.1c-8.4,24-28.3,39.2-53.3,40.6
			C729.4,496.7,728.4,496.7,727.4,496.7L727.4,496.7z"/>
		
			<linearGradient id="SVGID_00000095334780528499837370000013254574455611000203_" gradientUnits="userSpaceOnUse" x1="41.4273" y1="299.5113" x2="797.5799" y2="299.5113" gradientTransform="matrix(1 0 0 -1 0 598)">
			<stop  offset="0" style="stop-color:#D1D3D4"/>
			<stop  offset="1" style="stop-color:#F1F2F2"/>
		</linearGradient>
		<path style="fill:url(#SVGID_00000095334780528499837370000013254574455611000203_);" d="M727.4,493.3c-0.9,0-1.8,0-2.7-0.1
			c-5.6-0.3-11-1.4-16.1-3.3c-5.1,1.8-10.5,2.9-16.1,3.3c-0.9,0-1.9,0.1-2.8,0.1c-0.9,0-1.8,0-2.7-0.1c-7.3-0.4-14.2-2.1-20.5-5
			c-8.5,3.3-17.7,5.1-26.9,5.1c-14.4,0-28.1-4.1-39.9-11.9c-10.1,7.7-22.4,11.8-35.1,11.8c-26.1,0-47.4-21.3-47.4-47.4v-36.4H311
			c-11.9,0-23.4-4.5-32-12.5c-22.7,11.4-49.1,17.1-78.6,17.1c-42.9,0-79-12.4-107.1-36.9c-34.5-30.2-51.9-69.8-51.9-117.7
			c0-44.2,14.7-81.5,43.7-111c29.2-29.7,67.9-44.7,115-44.7c29.8,0,56.4,5.7,79.1,16.9c8.7-7.8,20-12.2,31.7-12.2h69.5
			c7,0,14,1.6,20.3,4.5c15-6.1,31.8-9.2,50.2-9.2c31.1,0,57,9.6,77.2,28.5c26.1-18.9,58.6-28.5,96.5-28.5c37.9,0,65.5,6.3,89,19.3
			c24.6,13.6,43.6,33.6,56.3,59.2c11.7,23.5,17.6,52.9,17.6,87.3v8.9c0,7.4-1.7,14.7-5,21.3c2,10.7,0.3,21.8-4.9,31.4
			c-2.2,4-4.5,7.9-6.9,11.7c7.3,4.2,13.6,10.3,18.3,17.7c8.2,12.8,10.6,28.2,6.8,43.1c-0.2,0.7-0.4,1.4-0.6,2.1L781,452.9
			c-0.2,0.7-0.4,1.3-0.6,1.9c-7.9,22.6-26.7,37-50.3,38.3C729.2,493.3,728.3,493.3,727.4,493.3L727.4,493.3z"/>
		<path d="M783.3,364.3c-5.6-8.7-13.4-15.1-22.6-18.6c3.9-5.6,7.5-11.5,10.9-17.7c4.9-9,6.2-19.4,3.7-29.2
			c3.5-6.1,5.4-13.1,5.4-20.3v-8.9c0-33.4-5.7-61.8-16.9-84.3c-12.1-24.4-30.2-43.3-53.6-56.3c-22.5-12.4-50.5-18.5-85.7-18.5
			c-38.8,0-71.4,10.3-97.1,30.7c-19.4-20.3-45.2-30.7-76.6-30.7c-18.6,0-35.6,3.3-50.4,9.9c-6.1-3.4-12.9-5.2-20-5.2H311
			c-11.8,0-22.8,5.1-30.4,13.8c-22.7-12.2-49.7-18.4-80.4-18.4c-45.3,0-82.4,14.4-110.2,42.7c-27.7,28.2-41.8,63.9-41.8,106.3
			c0,45.8,16.7,83.7,49.5,112.6c26.8,23.4,61.4,35.2,102.6,35.2c30.4,0,57.2-6.3,79.9-18.7c7.6,8.8,18.7,14,30.7,14h206
			c2.4,0,4.8-0.2,7.1-0.6v43.8c0,22.4,18.2,40.6,40.6,40.6c13.1,0,25.2-4.8,34.8-13.6c11.6,9,25.3,13.6,40.2,13.6
			c9.4,0,18.7-2,27.1-5.8c6.3,3.3,13.3,5.3,20.7,5.7c0.8,0,1.5,0.1,2.3,0.1s1.5,0,2.3-0.1c5.8-0.3,11.3-1.6,16.5-3.8
			c5.2,2.2,10.7,3.4,16.5,3.8c0.8,0,1.5,0.1,2.3,0.1c0.8,0,1.5,0,2.3-0.1c20.8-1.2,37.3-13.8,44.3-33.8c0.2-0.5,0.4-1.1,0.5-1.7
			l14.2-47.1c0.2-0.6,0.3-1.2,0.5-1.8C792.6,389,790.5,375.5,783.3,364.3L783.3,364.3z"/>
		<g>
			<g>
				
					<linearGradient id="SVGID_00000111163031184752999070000008763500836184162224_" gradientUnits="userSpaceOnUse" x1="88.8469" y1="339.1293" x2="312.5999" y2="339.1293" gradientTransform="matrix(1 0 0 -1 0 598)">
					<stop  offset="0" style="stop-color:#CE061F"/>
					<stop  offset="1" style="stop-color:#FF0013"/>
				</linearGradient>
				<path style="fill:url(#SVGID_00000111163031184752999070000008763500836184162224_);" d="M288.6,187
					c-19.9-23.9-49.4-35.9-88.4-35.9c-34.1,0-61.2,10.2-81.2,30.6S88.8,228,88.8,259.4c0,33.8,11.9,61.1,35.6,81.9
					c19.3,16.8,44.6,25.2,75.9,25.2c35.1,0,62.6-10.1,82.4-30.4c19.9-20.3,29.8-46.2,29.8-78C312.6,230,304.6,206.3,288.6,187
					L288.6,187z M227.2,300.2c-6.9,8.7-15.7,13-26.5,13s-19.5-4.4-26.5-13.2c-7-8.8-10.5-22.4-10.5-40.8s3.5-31.6,10.6-40.5
					s16.1-13.3,27-13.3c10.3,0,18.9,4.4,25.9,13.1c7,8.7,10.5,22,10.5,39.9C237.6,277.6,234.1,291.5,227.2,300.2L227.2,300.2z"/>
				
					<linearGradient id="SVGID_00000124127647112446213910000007765499624578219699_" gradientUnits="userSpaceOnUse" x1="310.9741" y1="341.4551" x2="516.9334" y2="341.4551" gradientTransform="matrix(1 0 0 -1 0 598)">
					<stop  offset="0" style="stop-color:#CE061F"/>
					<stop  offset="1" style="stop-color:#FF0013"/>
				</linearGradient>
				<path style="fill:url(#SVGID_00000124127647112446213910000007765499624578219699_);" d="M516.9,230.9V362h-72.1V212.3h-45.2
					l-52,12.8v28.4h29.5V362H311V155.8h69.5v33.6c10.4-13.7,20.9-23.5,31.5-29.4c10.6-5.9,23.6-8.8,38.9-8.8
					c20.7,0,36.8,6.5,48.5,19.5C511.1,183.6,516.9,203.7,516.9,230.9z"/>
				
					<linearGradient id="SVGID_00000138549869247367646850000015318836733549808512_" gradientUnits="userSpaceOnUse" x1="514.6076" y1="339.118" x2="740.1671" y2="339.118" gradientTransform="matrix(1 0 0 -1 0 598)">
					<stop  offset="0" style="stop-color:#CE061F"/>
					<stop  offset="1" style="stop-color:#FF0013"/>
				</linearGradient>
				<path style="fill:url(#SVGID_00000138549869247367646850000015318836733549808512_);" d="M740.2,269.6
					c0-27.2-4.2-49.2-12.6-66.2c-8.4-17-20.7-29.9-36.9-38.8c-16.1-8.9-38.1-13.4-66-13.4c-34.3,0-61.3,10-80.8,29.9
					c-19.5,19.9-29.2,46-29.2,78.2c0,22.6,4.9,42.4,14.6,59.1c9.7,16.8,22,29,36.8,36.7c14.8,7.7,35.1,11.6,60.9,11.6
					c29.7,0,52.5-4.5,68.4-13.5c15.9-9,29.5-23.8,40.7-44.6l-73.5-7.2c-4.7,6.2-9,10.5-13,13c-6.6,3.9-13.6,5.8-20.9,5.8
					c-11.6,0-21-4.5-28.2-13.4c-5.1-6.2-8.4-15.7-9.7-28.3h149.6L740.2,269.6L740.2,269.6z M590.7,240.6c1.2-12.3,4.1-21.5,8.6-27.8
					c7.1-10,16.6-14.9,28.4-14.9c10.3,0,18.6,3.3,24.8,9.9c6.3,6.6,10.2,17.5,11.7,32.8H590.7z"/>
			</g>
			
				<linearGradient id="SVGID_00000049932717413549640800000013956965344376886198_" gradientUnits="userSpaceOnUse" x1="402.9943" y1="222.6465" x2="395.633" y2="378.6119" gradientTransform="matrix(1 0 0 -1 0 598)">
				<stop  offset="0" style="stop-color:#A7A9AC"/>
				<stop  offset="1" style="stop-color:#F1F2F2"/>
			</linearGradient>
			<polygon style="fill:url(#SVGID_00000049932717413549640800000013956965344376886198_);" points="444.9,212.3 444.9,362 
				377.2,362 377.2,253.6 347.7,253.6 347.7,225.1 399.7,212.3 			"/>
			<g>
				
					<linearGradient id="SVGID_00000015328558376175478800000006466454997917946246_" gradientUnits="userSpaceOnUse" x1="584.8867" y1="143.545" x2="586.4447" y2="200.3356" gradientTransform="matrix(1 0 0 -1 0 598)">
					<stop  offset="0" style="stop-color:#A7A9AC"/>
					<stop  offset="1" style="stop-color:#F1F2F2"/>
				</linearGradient>
				<path style="fill:url(#SVGID_00000015328558376175478800000006466454997917946246_);" d="M605.5,388.7c-3.2-3.8-7-6.2-11.5-7.1
					c-1.1-0.2-2.2-0.3-3.2-0.3l-0.9,0h-0.6l-1,0l-4.1,0c-2.6,0-5.3,0-7.9-0.1c-3.9,0-7.2,1.5-9.9,4.6c-2.6,3-4,6.6-4,10.7v49.4
					c0,1.2,1,2.3,2.3,2.3c3.9,0,7.2-1.5,9.9-4.6c2.6-3,4-6.6,4-10.7v-8.6c1.8,0,3.7,0,5.5,0l4.2,0h2.3l1.4,0c0,0,0.2,0,0.2,0
					l1.6-0.2c4.5-0.9,8.4-3.2,11.7-7c1.5-1.9,2.7-4.1,3.6-6.5c0.9-2.4,1.3-4.9,1.3-7.6C610.3,397.5,608.7,392.7,605.5,388.7
					L605.5,388.7z M594.2,402.7c0,1.2-0.3,2.2-0.9,3.2c-0.6,0.9-1.4,1.5-2.4,1.9c-0.2,0-0.4,0.1-0.6,0.1l-0.3,0h-0.9l-0.9,0H584
					c-0.9,0-1.7,0-2.6,0c-0.9,0-1.9,0-2.9,0v-10.6c1.9,0,3.7,0,5.6,0l4.2,0h1.4c0,0,0.2,0,0.3,0c0.2,0,0.3,0,0.5,0.1
					c0.1,0,0.3,0.1,0.4,0.1c1,0.4,1.8,1,2.4,1.9C594,400.5,594.2,401.5,594.2,402.7L594.2,402.7z"/>
				
					<linearGradient id="SVGID_00000181046436072630417290000008650668951891198650_" gradientUnits="userSpaceOnUse" x1="645.4102" y1="144.1325" x2="646.9456" y2="200.4264" gradientTransform="matrix(1 0 0 -1 0 598)">
					<stop  offset="0" style="stop-color:#A7A9AC"/>
					<stop  offset="1" style="stop-color:#F1F2F2"/>
				</linearGradient>
				<path style="fill:url(#SVGID_00000181046436072630417290000008650668951891198650_);" d="M646.5,381.1c-8.3,0-15.4,3.3-21.3,9.9
					c-5.8,6.5-8.7,14.5-8.7,23.6c0,9.2,2.9,17,8.7,23.6c5.8,6.6,13,9.9,21.3,9.9s15.5-3.3,21.3-9.9c5.8-6.5,8.7-14.4,8.7-23.6
					c0-9.1-2.9-17.1-8.7-23.6C661.9,384.5,654.8,381.1,646.5,381.1L646.5,381.1z M656.2,426c-2.7,3.1-5.9,4.6-9.8,4.6
					c-3.8,0-7-1.5-9.8-4.6c-2.8-3.2-4.2-6.9-4.2-11.4c0-4.5,1.4-8.2,4.2-11.4c2.7-3.1,5.9-4.6,9.8-4.6c3.8,0,7,1.5,9.8,4.6
					c2.8,3.2,4.2,6.9,4.2,11.4S659,422.8,656.2,426z"/>
				
					<linearGradient id="SVGID_00000156565550345703104260000004796628747348182405_" gradientUnits="userSpaceOnUse" x1="718.1438" y1="143.5222" x2="719.7244" y2="201.0129" gradientTransform="matrix(1 0 0 -1 0 598)">
					<stop  offset="0" style="stop-color:#A7A9AC"/>
					<stop  offset="1" style="stop-color:#F1F2F2"/>
				</linearGradient>
				<path style="fill:url(#SVGID_00000156565550345703104260000004796628747348182405_);" d="M762.2,384.9c-1.6-2.4-3.8-3.7-6.6-3.7
					c-2.5,0-5.8,1.1-7.7,6.3l-9.2,32.6l-8.6-30.7c-2.5-6.8-7-8.2-10.2-8.2s-7.7,1.4-10.3,8.4l-8.5,30.5l-9.2-32.8
					c-1.9-5-5.3-6.1-7.7-6.1c-2.8,0-5.1,1.3-6.6,3.7c-1.5,2.3-1.9,5-1.1,7.9l14.2,47.2c1.8,5.1,5.3,7.9,10.3,8.2c0,0,0.2,0,0.3,0
					c4.9-0.3,8.4-3.1,10.3-8.3l8.4-28l8.5,28c1.8,5.1,5.3,7.9,10.2,8.2c0,0,0.1,0,0.1,0c0,0,0.1,0,0.1,0c4.9-0.3,8.5-3.1,10.3-8.3
					l14.3-47.2C764.1,389.8,763.8,387.2,762.2,384.9L762.2,384.9z"/>
			</g>
		</g>
	</g>
</g>
</svg>
